<?xml version="1.0" encoding="UTF-8" standalone="no"?>
<!DOCTYPE svg PUBLIC "-//W3C//DTD SVG 20010904//EN" "http://www.w3.org/TR/2001/REC-SVG-20010904/DTD/svg10.dtd">
<svg version="1.0" xmlns="http://www.w3.org/2000/svg" width="1280.000000pt" height="1210.000000pt" viewBox="0 0 1280.000000 1210.000000" preserveAspectRatio="xMidYMid meet">
<metadata>
Created by potrace 1.15, written by Peter Selinger 2001-2017
</metadata>
<g transform="translate(0.000000,1210.000000) scale(0.100000,-0.100000)" fill="black" stroke="none">
<path d="M11345 12075 c-49 -33 -58 -44 -146 -173 -39 -57 -77 -106 -85 -109 -27 -10 -63 7 -141 69 -121 96 -179 128 -233 128 -98 0 -285 -84 -384 -172 -79 -70 -152 -176 -166 -241 -23 -110 22 -257 116 -373 l33 -41 -82 -7 c-331 -28 -656 -105 -851 -203 -314 -157 -535 -430 -726 -893 -73 -179 -139 -389 -235 -750 -105 -391 -159 -559 -229 -705 -102 -213 -292 -470 -496 -675 -155 -155 -294 -265 -550 -435 -640 -426 -839 -521 -1245 -596 -211 -40 -362 -31 -623 37 -333 86 -415 126 -722 350 -415 303 -681 451 -1005 559 -264 88 -490 121 -770 112 -536 -19 -1152 -196 -1560 -450 -532 -330 -957 -995 -1129 -1762 -37 -167 -54 -286 -83 -591 -36 -383 -38 -796 -5 -1012 35 -222 114 -439 255 -702 53 -100 75 -129 167 -221 171 -171 395 -307 579 -349 91 -21 457 -64 495 -58 16 3 13 10 -21 53 -22 28 -102 115 -178 195 -304 320 -424 526 -519 891 -33 125 -46 221 -72 519 l-6 75 72 -140 c149 -290 218 -384 305 -421 104 -43 165 9 219 188 26 85 31 116 60 365 20 165 35 190 36 58 2 -343 21 -830 35 -915 20 -123 77 -301 118 -370 95 -158 210 -120 281 92 13 40 52 233 85 428 189 1104 245 1410 261 1439 24 46 33 23 26 -66 -8 -90 -18 -520 -16 -653 1 -41 9 -97 18 -125 19 -57 39 -65 104 -46 49 15 142 101 161 150 9 21 62 212 117 423 118 446 184 676 210 733 l18 40 1 -45 c1 -57 -22 -155 -99 -410 -112 -375 -145 -530 -156 -740 -17 -335 71 -805 187 -993 111 -180 323 -392 481 -481 114 -63 258 -84 258 -36 0 27 -60 214 -134 420 -106 295 -129 389 -151 630 -27 283 -17 718 21 945 34 205 186 705 213 705 9 0 -3 -116 -23 -210 -46 -229 -67 -495 -67 -870 0 -562 54 -984 161 -1257 29 -74 56 -122 63 -112 2 2 26 96 54 209 49 202 94 329 136 391 25 36 74 76 82 67 4 -3 13 -70 21 -149 19 -185 39 -290 71 -362 50 -112 234 -253 424 -324 91 -34 242 -63 256 -50 4 4 -14 94 -40 200 -60 248 -72 354 -51 455 5 23 6 22 34 -17 16 -22 49 -51 72 -63 38 -20 58 -23 163 -23 l120 0 58 -111 c63 -121 78 -134 151 -134 34 0 60 11 127 51 125 76 117 76 191 17 99 -80 135 -93 253 -92 105 1 161 15 216 55 17 12 31 20 33 18 1 -2 15 -33 29 -68 66 -153 185 -323 326 -461 97 -94 199 -167 223 -157 7 2 49 91 92 196 l79 192 22 -27 c12 -15 53 -83 90 -151 80 -144 129 -197 288 -310 59 -42 107 -80 107 -83 0 -4 -16 -116 -35 -250 -19 -134 -35 -244 -35 -245 0 -1 -36 8 -80 21 -103 30 -177 42 -320 53 -87 6 -133 15 -190 37 -65 24 -89 28 -185 28 -100 1 -115 -1 -165 -26 -30 -15 -74 -47 -98 -71 l-43 -44 75 -5 c58 -4 90 -12 141 -37 72 -36 105 -72 157 -175 62 -122 72 -129 226 -146 72 -8 124 -22 222 -60 71 -28 134 -50 140 -50 47 0 -99 -104 -190 -135 -105 -36 -238 -107 -397 -214 -159 -106 -239 -181 -291 -273 -82 -144 -96 -325 -35 -449 18 -35 45 -77 62 -93 l30 -28 45 89 c71 142 108 176 226 203 111 26 228 81 357 167 45 31 87 52 93 48 6 -4 32 -39 57 -79 74 -117 114 -163 193 -229 136 -114 233 -167 306 -167 14 0 44 -15 67 -34 77 -62 90 -65 248 -63 126 2 151 -1 202 -20 73 -28 175 -95 260 -174 37 -34 70 -59 74 -56 3 4 6 73 7 154 1 138 -1 153 -27 228 -19 53 -25 81 -17 83 13 5 195 125 252 167 34 25 39 26 74 15 l37 -13 60 67 c176 197 266 160 575 -233 62 -79 130 -156 150 -171 91 -66 140 -152 163 -287 6 -37 13 -69 14 -71 5 -6 148 29 173 42 42 22 108 98 123 142 21 62 16 143 -15 228 -16 42 -32 79 -37 82 -21 13 -7 23 19 13 15 -6 83 -24 151 -40 209 -50 213 -55 246 -282 9 -62 18 -114 20 -116 2 -2 52 23 111 55 71 39 113 69 125 89 46 75 64 293 34 408 -40 152 -137 262 -311 350 -29 15 -132 54 -229 87 -202 69 -238 86 -361 168 -134 90 -174 135 -203 223 -13 41 -39 108 -58 149 -26 58 -42 119 -69 265 -40 220 -85 430 -114 529 l-20 69 98 93 c257 242 366 531 395 1044 l2 44 190 164 c479 414 733 657 1026 982 418 464 613 726 765 1025 115 228 163 396 211 735 25 178 24 730 0 950 -46 400 -108 725 -222 1154 -25 92 -45 175 -45 183 0 9 14 31 30 50 46 51 101 169 171 363 l63 175 2 240 c0 187 4 256 18 315 9 41 19 84 21 95 4 21 5 21 167 -7 90 -15 190 -27 223 -28 72 0 167 23 205 50 l27 19 102 -69 101 -68 17 31 c11 21 17 55 17 97 0 58 -5 76 -51 170 -61 125 -106 187 -215 297 l-81 83 38 82 c38 81 39 87 43 212 5 159 -9 247 -54 342 -36 76 -109 166 -155 189 -38 20 -125 19 -244 -4 -57 -11 -104 -16 -109 -11 -5 5 7 45 28 94 59 137 50 223 -26 262 -62 32 -143 4 -293 -100 -44 -31 -85 -56 -92 -56 -9 0 -12 37 -10 153 2 140 0 155 -20 194 -28 52 -69 82 -125 89 -36 5 -50 1 -83 -21z m-2875 -9705 c30 -183 56 -273 113 -390 28 -58 52 -107 54 -110 1 -3 -29 -20 -68 -38 -206 -97 -249 -254 -143 -519 l29 -72 50 56 c54 62 122 99 201 110 45 6 48 5 35 -10 -7 -9 -64 -55 -126 -102 -129 -97 -174 -143 -211 -216 l-26 -52 -31 57 c-49 92 -198 221 -336 291 -73 37 -137 55 -193 55 -27 0 -48 2 -48 5 0 2 12 40 26 82 31 92 29 174 -5 241 l-21 42 21 62 c11 35 30 135 41 223 11 88 21 160 22 161 0 0 58 19 129 42 141 47 310 120 402 175 33 19 61 34 62 33 1 -1 11 -58 23 -126z m-454 -1530 c38 -17 106 -38 151 -45 75 -12 143 -43 143 -63 0 -7 -16 -115 -26 -170 l-5 -34 -31 46 c-16 25 -57 71 -91 101 -53 48 -66 55 -102 55 -53 0 -180 63 -209 103 -18 24 -19 29 -6 38 24 16 103 2 176 -31z"/>
</g>
</svg>
