<?xml version="1.0" encoding="UTF-8" standalone="no"?>
<svg
   xmlns:dc="http://purl.org/dc/elements/1.1/"
   xmlns:cc="http://creativecommons.org/ns#"
   xmlns:rdf="http://www.w3.org/1999/02/22-rdf-syntax-ns#"
   xmlns:svg="http://www.w3.org/2000/svg"
   xmlns="http://www.w3.org/2000/svg"
   xmlns:sodipodi="http://sodipodi.sourceforge.net/DTD/sodipodi-0.dtd"
   xmlns:inkscape="http://www.inkscape.org/namespaces/inkscape"
   version="1.0"
   width="1280.000000pt"
   height="1210.000000pt"
   viewBox="0 0 1280.000000 1210.000000"
   preserveAspectRatio="xMidYMid meet"
   id="svg8"
   sodipodi:docname="coq_rouge.svg"
   inkscape:version="1.0beta2 (unknown)">
  <defs
     id="defs12" />
  <sodipodi:namedview
     pagecolor="#ffffff"
     bordercolor="#666666"
     inkscape:document-rotation="0"
     borderopacity="1"
     objecttolerance="10"
     gridtolerance="10"
     guidetolerance="10"
     inkscape:pageopacity="0"
     inkscape:pageshadow="2"
     inkscape:window-width="1920"
     inkscape:window-height="1145"
     id="namedview10"
     showgrid="false"
     inkscape:zoom="0.41652893"
     inkscape:cx="853.33333"
     inkscape:cy="806.66667"
     inkscape:window-x="0"
     inkscape:window-y="27"
     inkscape:window-maximized="1"
     inkscape:current-layer="svg8" />
  <metadata
     id="metadata2">
Created by potrace 1.15, written by Peter Selinger 2001-2017
<rdf:RDF>
  <cc:Work
     rdf:about="">
    <dc:format>image/svg+xml</dc:format>
    <dc:type
       rdf:resource="http://purl.org/dc/dcmitype/StillImage" />
    <dc:title></dc:title>
    <dc:creator>
      <cc:Agent>
        <dc:title>Edouard Bourguignon</dc:title>
      </cc:Agent>
    </dc:creator>
  </cc:Work>
</rdf:RDF>
</metadata>
  <path
     inkscape:connector-curvature="0"
     d="m 221.19333,18.301771 c -8.68987,-0.175567 -17.36584,3.463387 -23.38555,11.766746 -3.92274,4.641534 -7.26243,10.015888 -9.97915,15.843068 -2.75684,-3.182121 -5.7761,-6.10663 -9.06293,-8.690574 -5.84843,-5.841184 -13.32874,-8.702386 -20.79525,-8.911478 -0.44549,-0.01257 -0.89177,-0.01466 -1.33681,-0.0084 -13.79506,0.19633 -27.20849,9.394686 -29.83291,25.521547 -1.24316,5.240507 -1.84119,10.757994 -1.87928,16.370762 -2.50445,-0.712826 -5.07254,-1.106212 -7.6408,-1.178092 -14.25428,-0.399153 -28.458573,8.866225 -31.167807,25.513323 -3.342947,14.092607 -2.168733,30.154367 2.712302,44.804837 -1.476087,5.41313 -2.265835,10.97853 -2.237678,16.6019 -31.533106,8.97478 -60.133481,23.21048 -73.482946,55.1746 4.464193,3.71002 10.057198,5.53657 16.488699,6.05415 a 73.31308,30.231835 0 0 0 68.734537,19.71897 73.31308,30.231835 0 0 0 48.489483,-7.55745 c 1.82793,0.7879 3.68328,1.51759 5.54848,2.22733 -17.61737,39.1488 -21.43741,88.12019 -10.97503,132.14422 -15.70528,50.6234 -21.82208,104.27395 -15.43269,157.04806 7.6173,49.34579 9.87939,107.55217 28.73256,155.24611 7.59637,63.82515 52.36332,120.68753 104.20125,153.2908 5.01303,3.18864 10.0913,6.24448 15.21969,9.19572 -1.37833,12.18756 0.0149,25.12517 4.98666,38.60551 19.98359,46.06521 58.71482,75.5987 102.57787,93.8005 -9.24754,23.79428 -13.75863,54.00117 -12.68567,74.52547 -0.52565,4.0745 -0.83899,7.8798 -0.9822,11.4599 -1.04799,-0.053 -2.1124,-0.075 -3.19281,-0.061 -33.03618,0.4282 -80.44337,31.3217 -99.79771,56.0747 -28.74604,67.2589 37.07247,4.5774 70.44523,9.0647 -3.91291,7.6378 -6.81375,14.7086 -8.21623,20.2507 -10.8666,68.5933 22.52457,-0.7023 52.30409,-8.2364 l 22.19796,-29.7431 33.60495,18.9275 c 4.17556,-1.6385 9.11706,-1.7546 14.46604,-0.9122 -8.69789,6.9828 -16.16917,14.261 -21.49851,21.0769 -28.74616,67.2589 37.07247,4.5756 70.44519,9.0628 -3.9132,7.6383 -6.81375,14.7104 -8.21623,20.2529 -10.8666,68.5932 22.52461,-0.7045 52.30413,-8.2385 l 22.19792,-29.7431 33.60681,18.9295 c 31.30104,-12.2825 105.37715,60.3584 75.19371,-10.2636 -18.92332,-24.2017 -64.65776,-54.26 -97.56202,-55.9844 3.32694,-5.6751 6.09579,-11.9142 8.07666,-18.4428 l 11.48455,5.3219 c 29.81724,-7.3761 79.16771,28.4245 43.7178,-23.4455 -7.9742,-11.5863 -34.24481,-26.9028 -56.7425,-33.5248 -0.80711,-9.8158 -0.63208,-21.36081 -1.48204,-32.45116 47.08269,-14.27913 88.31685,-43.82061 104.62559,-95.13816 3.6527,-14.25171 6.93447,-28.63895 9.41931,-43.17467 49.60459,-26.07615 96.42016,-67.64027 119.23692,-120.65153 27.87697,-3.81162 54.56914,-14.73075 77.07479,-34.68458 51.97516,-34.92305 93.94759,-87.50041 112.04944,-150.25143 -4.022,67.82181 -11.01094,145.99513 -69.86021,187.36174 -19.03293,15.74964 -85.47647,47.45587 -74.92824,53.18451 99.05508,-11.54408 213.05175,-66.78363 239.41925,-177.42149 -0.9351,-21.98648 23.8147,-91.0764 23.0853,-28.92494 3.8116,69.63046 -42.3152,122.51694 -84.5451,169.33015 -25.96,26.138 -27.6556,35.50589 6.8174,13.39885 67.3286,-31.50107 119.1129,-91.74585 144.0754,-164.60951 18.2113,-25.89276 4.8139,65.04052 -4.7502,83.21803 -15.3237,32.56764 -46.8706,87.15908 8.315,50.45813 83.3058,-53.32276 108.0076,-187.36116 38.2273,-263.61147 -44.5292,-59.83223 -102.9792,-119.70669 -180.0284,-119.74543 -9.2863,-0.70373 -18.5981,-0.99451 -27.9072,-1.00631 -102.61981,1.4439 -202.41665,42.65603 -279.95403,113.46017 -8.98386,8.23055 -18.43849,15.86288 -28.15142,23.15717 C 657.20276,444.6496 593.17384,425.96762 527.95423,421.19135 513.84207,344.31338 476.96362,272.32996 419.39395,221.71308 408.50996,210.0398 395.859,199.20101 382.19905,190.13942 c -9.10655,-13.23381 -20.23801,-24.87359 -33.46151,-34.2019 -2.55001,-1.86641 -5.13255,-3.59745 -7.7397,-5.21351 -0.88569,-14.16932 -6.94422,-27.64887 -15.61295,-38.3948 -2.4751,-2.75551 -5.04921,-5.36854 -7.70474,-7.86015 C 336.84392,79.994536 339.20107,43.076479 305.35867,32.461422 286.70822,27.879104 267.53166,31.704111 250.92941,40.301079 246.26701,26.745037 233.72298,18.554748 221.19333,18.30159 Z M 456.36594,991.4724 c 6.59004,1.06132 13.13492,1.95763 19.58452,2.67725 9.20596,0.9315 18.75243,1.41113 28.46712,1.42565 -3.36068,28.5161 1.37063,62.2815 2.7762,85.1775 0.97303,3.3276 2.03677,6.3578 3.16757,9.1569 -5.43937,1.4345 -11.03456,3.3906 -16.65335,5.7739 -14.01713,-12.0635 -32.11987,-23.6588 -49.90766,-30.9968 1.53888,-3.0782 2.88004,-6.3031 3.99872,-9.654 23.69366,11.3508 42.93332,29.6336 26.69647,-16.6694 -2.55129,-7.2017 -9.92341,-16.9284 -19.29005,-26.3642 0.83936,-6.8108 1.28167,-13.68575 1.16046,-20.5268 z"
     style="fill:#ff0000;fill-rule:evenodd;stroke-width:1.01918"
     id="path2182" />
</svg>
